<svg width="231" height="37" viewBox="0 0 231 37" fill="none" xmlns="http://www.w3.org/2000/svg">
<g clip-path="url(#clip0_51_18498)">
<path d="M46.284 21.949C47.0599 23.7384 47.0599 25.7495 46.284 27.5389L43.7028 33.5088C42.5944 36.0425 39.649 37.2143 37.1154 36.1216L36.7195 35.9475C34.4709 34.9657 33.2515 32.5112 33.8533 30.1359L38.6197 19.0987C38.6989 18.9245 38.7622 18.7345 38.7939 18.5286C38.9998 17.3568 38.3822 16.2008 37.3054 15.7416C36.9887 15.5991 36.6403 15.5357 36.3078 15.5357C35.3576 15.5357 34.5025 16.0583 34.0591 16.8817C34.0275 16.9451 33.9958 17.0084 33.9641 17.0718L26.7432 33.7622C25.5556 36.1375 22.7211 37.1668 20.2666 36.1216L19.8707 35.9475C18.6672 35.4249 17.7329 34.4589 17.242 33.2554L13.6791 25.0211L10.0053 33.5088C8.89683 36.0425 5.95146 37.2143 3.41781 36.1216L3.02193 35.9475C0.488277 34.839 -0.683536 31.8936 0.409101 29.36L11.7789 3.02583C12.8873 0.492184 15.8327 -0.67963 18.3663 0.413007L18.7622 0.587195C20.995 1.55315 22.1985 3.97595 21.6443 6.33541L17.052 16.9609C16.9728 17.1509 16.9095 17.3568 16.8778 17.5627C16.6403 18.9562 17.5904 20.2547 18.9681 20.4922C20.1241 20.6822 21.2642 20.0646 21.7234 18.9878L28.6276 3.02583C29.7361 0.492184 32.6815 -0.67963 35.2151 0.413007L35.611 0.587195C36.577 0.998914 37.3846 1.7115 37.923 2.62995L38.4297 3.8176L41.8026 11.5611L46.284 21.949Z" fill="#273775"/>
<path d="M52.5378 8.37914H50.02V5.86133H46.9163V8.37914H44.3984V11.4987H46.9163V14.0165H50.02V11.4987H52.5378V8.37914Z" fill="#273775"/>
<path d="M79.9176 13.6119L73.5488 21.6291H72.7246L66.5805 13.5557V27.9605H61.9912V7.35547H67.2549L73.2678 15.279L79.2994 7.35547H84.5069V27.9605H79.9176V13.6119Z" fill="#273775"/>
<path d="M91.7417 22.0239C91.9478 23.4288 93.2965 24.5901 95.6942 24.5901C96.8368 24.5901 98.429 24.3279 99.4593 23.4475L101.838 26.0887C100.283 27.6247 97.7734 28.2428 95.6005 28.2428C90.3369 28.2428 87.4521 25.1521 87.4521 20.5066C87.4521 16.0859 90.4305 12.9951 95.1697 12.9951C100.115 12.9951 103.355 16.0859 102.438 22.0426L91.7417 22.0239ZM98.6351 18.9331C98.5414 17.3409 96.9305 16.6104 95.1697 16.6104C93.4651 16.6104 92.1726 17.4908 91.7605 18.9331H98.6351Z" fill="#273775"/>
<path d="M120.519 7.33691V27.9232H116.717L116.455 26.0688C115.106 27.8108 113.457 28.1855 111.622 28.1855C107.351 28.1855 104.429 25.1884 104.429 20.6553C104.429 15.9348 107.407 13.0876 111.678 13.0876C113.383 13.0876 115.012 13.6121 116.249 15.1481V7.33691H120.519ZM108.7 20.6365C108.7 22.7345 109.992 24.3829 112.259 24.3829C114.169 24.3829 116.174 23.4088 116.174 20.6365C116.174 18.2014 114.207 16.8902 112.259 16.8902C110.086 16.9089 108.7 18.4636 108.7 20.6365Z" fill="#273775"/>
<path d="M133.25 17.488C132.258 16.7575 131.04 16.3828 129.804 16.4203C128.418 16.4203 127.706 16.9261 127.706 17.6191C127.706 18.4246 128.436 18.8554 129.86 18.8929C132.726 18.9866 136.173 19.5672 136.191 23.5759C136.229 25.9361 134.449 28.4649 129.822 28.4649C127.668 28.4649 125.458 28.0528 122.985 25.9923L124.821 22.9952C126.619 24.475 128.361 24.7934 129.879 24.8309C131.115 24.8684 132.089 24.3626 132.052 23.5946C132.052 22.9202 131.546 22.3583 129.579 22.3021C126.863 22.1897 123.491 21.0658 123.491 17.6566C123.491 14.3598 126.619 12.9736 129.766 12.9736C132.014 12.9736 133.794 13.5356 135.33 14.8655L133.25 17.488Z" fill="#273775"/>
<path d="M159.69 20.7753L159.391 14.2941V7.36328H164.017V27.987H160.065L149.819 14.7998L150.006 21.5808V28.0058H145.342V7.36328H149.294L159.69 20.7753Z" fill="#273775"/>
<path d="M171.229 22.0873C171.435 23.4922 172.784 24.6536 175.182 24.6536C176.324 24.6536 177.916 24.3914 178.947 23.511L181.326 26.1522C179.771 27.6882 177.261 28.3063 175.088 28.3063C169.824 28.3063 166.921 25.2156 166.921 20.5701C166.921 16.1493 169.899 13.0586 174.638 13.0586C179.584 13.0586 182.824 16.1493 181.906 22.1061L171.229 22.0873ZM178.123 18.9966C178.029 17.4044 176.418 16.6738 174.638 16.6738C172.934 16.6738 171.641 17.5542 171.229 18.9966H178.123Z" fill="#273775"/>
<path d="M193.089 13.4697H198.147V13.6196L193.52 20.6815L198.428 27.8932V27.9869H193.37L190.673 23.6224L188.013 27.9869H182.918V27.8932L187.844 20.6815L183.199 13.6196V13.4697H188.257L190.673 17.7968L193.089 13.4697Z" fill="#273775"/>
<path d="M204.517 13.4326V21.1127C204.517 23.3605 205.491 24.5031 207.514 24.5031C209.481 24.5406 210.811 22.8173 210.811 20.9441V13.4326H214.988V27.9873H211.167L211.017 26.0766C209.725 27.8187 208.076 28.3244 206.297 28.287C203.037 28.287 200.228 26.8072 200.228 21.1689V13.4326H204.517Z" fill="#273775"/>
<path d="M227.747 17.5525C226.754 16.8219 225.536 16.4473 224.3 16.4847C222.914 16.4847 222.202 16.9905 222.202 17.6836C222.202 18.4891 222.932 18.9199 224.356 18.9573C227.222 19.051 230.669 19.6317 230.687 23.6403C230.725 26.0005 228.945 28.5293 224.319 28.5293C222.164 28.5293 219.954 28.1172 217.481 26.0567L219.317 23.0596C221.115 24.5394 222.857 24.8579 224.375 24.8953C225.611 24.9328 226.585 24.427 226.548 23.659C226.548 22.9847 226.042 22.4227 224.075 22.3665C221.359 22.2542 217.968 21.1302 217.968 17.721C217.968 14.4242 221.097 13.0381 224.244 13.0381C226.491 13.0381 228.271 13.6 229.807 14.93L227.747 17.5525Z" fill="#273775"/>
</g>
<defs>
<clipPath id="clip0_51_18498">
<rect width="231" height="37" fill="white"/>
</clipPath>
</defs>
</svg>
